<mxfile host="app.diagrams.net" modified="2024-01-10T11:43:43.677Z" agent="Mozilla/5.0 (Windows NT 10.0; Win64; x64) AppleWebKit/537.36 (KHTML, like Gecko) Chrome/120.0.0.0 Safari/537.36" etag="Os6mrXjqM8H7dI2tVOw4" version="22.1.17" type="device" pages="2">
  <diagram id="R2lEEEUBdFMjLlhIrx00" name="ERD">
    <mxGraphModel dx="2350" dy="1896" grid="1" gridSize="10" guides="1" tooltips="1" connect="1" arrows="1" fold="1" page="1" pageScale="1" pageWidth="850" pageHeight="1100" math="0" shadow="0" extFonts="Permanent Marker^https://fonts.googleapis.com/css?family=Permanent+Marker">
      <root>
        <mxCell id="0" />
        <mxCell id="1" parent="0" />
        <mxCell id="UBYn010A4l6dqS02ffVp-1" value="Resident" style="rounded=0;whiteSpace=wrap;html=1;" vertex="1" parent="1">
          <mxGeometry x="215" y="240" width="120" height="60" as="geometry" />
        </mxCell>
        <mxCell id="UBYn010A4l6dqS02ffVp-2" value="name" style="ellipse;whiteSpace=wrap;html=1;" vertex="1" parent="1">
          <mxGeometry x="180" y="370" width="60" height="40" as="geometry" />
        </mxCell>
        <mxCell id="UBYn010A4l6dqS02ffVp-3" value="age" style="ellipse;whiteSpace=wrap;html=1;" vertex="1" parent="1">
          <mxGeometry x="440" y="370" width="60" height="40" as="geometry" />
        </mxCell>
        <mxCell id="UBYn010A4l6dqS02ffVp-4" value="gender" style="ellipse;whiteSpace=wrap;html=1;" vertex="1" parent="1">
          <mxGeometry x="260" y="370" width="60" height="40" as="geometry" />
        </mxCell>
        <mxCell id="UBYn010A4l6dqS02ffVp-5" value="phone_number" style="ellipse;whiteSpace=wrap;html=1;" vertex="1" parent="1">
          <mxGeometry x="335" y="365" width="90" height="50" as="geometry" />
        </mxCell>
        <mxCell id="UBYn010A4l6dqS02ffVp-6" value="&lt;u&gt;&lt;b&gt;ID&lt;/b&gt;&lt;/u&gt;" style="ellipse;whiteSpace=wrap;html=1;" vertex="1" parent="1">
          <mxGeometry x="130" y="320" width="60" height="30" as="geometry" />
        </mxCell>
        <mxCell id="UBYn010A4l6dqS02ffVp-7" value="" style="endArrow=none;html=1;rounded=0;entryX=0.083;entryY=1;entryDx=0;entryDy=0;entryPerimeter=0;" edge="1" parent="1" source="UBYn010A4l6dqS02ffVp-6" target="UBYn010A4l6dqS02ffVp-1">
          <mxGeometry width="50" height="50" relative="1" as="geometry">
            <mxPoint x="400" y="320" as="sourcePoint" />
            <mxPoint x="450" y="270" as="targetPoint" />
          </mxGeometry>
        </mxCell>
        <mxCell id="UBYn010A4l6dqS02ffVp-10" value="status" style="ellipse;whiteSpace=wrap;html=1;" vertex="1" parent="1">
          <mxGeometry x="200" y="440" width="80" height="30" as="geometry" />
        </mxCell>
        <mxCell id="UBYn010A4l6dqS02ffVp-11" value="" style="endArrow=none;html=1;rounded=0;exitX=0.5;exitY=0;exitDx=0;exitDy=0;entryX=0.25;entryY=1;entryDx=0;entryDy=0;" edge="1" parent="1" source="UBYn010A4l6dqS02ffVp-2" target="UBYn010A4l6dqS02ffVp-1">
          <mxGeometry width="50" height="50" relative="1" as="geometry">
            <mxPoint x="400" y="320" as="sourcePoint" />
            <mxPoint x="450" y="270" as="targetPoint" />
          </mxGeometry>
        </mxCell>
        <mxCell id="UBYn010A4l6dqS02ffVp-12" value="" style="endArrow=none;html=1;rounded=0;exitX=0.5;exitY=0;exitDx=0;exitDy=0;entryX=0.36;entryY=1.023;entryDx=0;entryDy=0;entryPerimeter=0;" edge="1" parent="1" source="UBYn010A4l6dqS02ffVp-10" target="UBYn010A4l6dqS02ffVp-1">
          <mxGeometry width="50" height="50" relative="1" as="geometry">
            <mxPoint x="400" y="320" as="sourcePoint" />
            <mxPoint x="260" y="250" as="targetPoint" />
          </mxGeometry>
        </mxCell>
        <mxCell id="UBYn010A4l6dqS02ffVp-13" value="" style="endArrow=none;html=1;rounded=0;exitX=0.5;exitY=0;exitDx=0;exitDy=0;entryX=0.419;entryY=0.994;entryDx=0;entryDy=0;entryPerimeter=0;" edge="1" parent="1" source="UBYn010A4l6dqS02ffVp-4" target="UBYn010A4l6dqS02ffVp-1">
          <mxGeometry width="50" height="50" relative="1" as="geometry">
            <mxPoint x="400" y="320" as="sourcePoint" />
            <mxPoint x="450" y="270" as="targetPoint" />
          </mxGeometry>
        </mxCell>
        <mxCell id="UBYn010A4l6dqS02ffVp-14" value="" style="endArrow=none;html=1;rounded=0;entryX=0.5;entryY=1;entryDx=0;entryDy=0;exitX=0.341;exitY=0.04;exitDx=0;exitDy=0;exitPerimeter=0;" edge="1" parent="1" source="UBYn010A4l6dqS02ffVp-5" target="UBYn010A4l6dqS02ffVp-1">
          <mxGeometry width="50" height="50" relative="1" as="geometry">
            <mxPoint x="380" y="360" as="sourcePoint" />
            <mxPoint x="450" y="270" as="targetPoint" />
          </mxGeometry>
        </mxCell>
        <mxCell id="UBYn010A4l6dqS02ffVp-15" value="" style="endArrow=none;html=1;rounded=0;exitX=0;exitY=0;exitDx=0;exitDy=0;entryX=0.75;entryY=1;entryDx=0;entryDy=0;" edge="1" parent="1" source="UBYn010A4l6dqS02ffVp-3" target="UBYn010A4l6dqS02ffVp-1">
          <mxGeometry width="50" height="50" relative="1" as="geometry">
            <mxPoint x="400" y="320" as="sourcePoint" />
            <mxPoint x="450" y="270" as="targetPoint" />
          </mxGeometry>
        </mxCell>
        <mxCell id="UBYn010A4l6dqS02ffVp-17" value="Household&lt;br&gt;" style="rounded=0;whiteSpace=wrap;html=1;" vertex="1" parent="1">
          <mxGeometry x="660" y="190" width="120" height="60" as="geometry" />
        </mxCell>
        <mxCell id="UBYn010A4l6dqS02ffVp-18" value="Staying&lt;br&gt;" style="rhombus;whiteSpace=wrap;html=1;" vertex="1" parent="1">
          <mxGeometry x="460" y="220" width="80" height="60" as="geometry" />
        </mxCell>
        <mxCell id="UBYn010A4l6dqS02ffVp-19" value="" style="endArrow=none;html=1;rounded=0;exitX=1;exitY=0.5;exitDx=0;exitDy=0;entryX=0;entryY=0.5;entryDx=0;entryDy=0;" edge="1" parent="1" source="UBYn010A4l6dqS02ffVp-1" target="UBYn010A4l6dqS02ffVp-18">
          <mxGeometry width="50" height="50" relative="1" as="geometry">
            <mxPoint x="540" y="310" as="sourcePoint" />
            <mxPoint x="590" y="260" as="targetPoint" />
          </mxGeometry>
        </mxCell>
        <mxCell id="UBYn010A4l6dqS02ffVp-23" value="n" style="edgeLabel;html=1;align=center;verticalAlign=middle;resizable=0;points=[];" vertex="1" connectable="0" parent="UBYn010A4l6dqS02ffVp-19">
          <mxGeometry x="-0.0328" relative="1" as="geometry">
            <mxPoint as="offset" />
          </mxGeometry>
        </mxCell>
        <mxCell id="UBYn010A4l6dqS02ffVp-20" value="" style="endArrow=none;html=1;rounded=0;exitX=1;exitY=0.5;exitDx=0;exitDy=0;entryX=0;entryY=0.5;entryDx=0;entryDy=0;" edge="1" parent="1" source="UBYn010A4l6dqS02ffVp-18" target="UBYn010A4l6dqS02ffVp-17">
          <mxGeometry width="50" height="50" relative="1" as="geometry">
            <mxPoint x="540" y="310" as="sourcePoint" />
            <mxPoint x="590" y="260" as="targetPoint" />
          </mxGeometry>
        </mxCell>
        <mxCell id="UBYn010A4l6dqS02ffVp-24" value="1" style="edgeLabel;html=1;align=center;verticalAlign=middle;resizable=0;points=[];" vertex="1" connectable="0" parent="UBYn010A4l6dqS02ffVp-20">
          <mxGeometry x="-0.0503" y="-4" relative="1" as="geometry">
            <mxPoint as="offset" />
          </mxGeometry>
        </mxCell>
        <mxCell id="UBYn010A4l6dqS02ffVp-26" value="household_address" style="ellipse;whiteSpace=wrap;html=1;" vertex="1" parent="1">
          <mxGeometry x="860" y="380" width="120" height="60" as="geometry" />
        </mxCell>
        <mxCell id="UBYn010A4l6dqS02ffVp-27" value="&lt;b&gt;&lt;u&gt;household_id&lt;/u&gt;&lt;/b&gt;" style="ellipse;whiteSpace=wrap;html=1;" vertex="1" parent="1">
          <mxGeometry x="520" y="340" width="100" height="50" as="geometry" />
        </mxCell>
        <mxCell id="UBYn010A4l6dqS02ffVp-28" value="phone" style="ellipse;whiteSpace=wrap;html=1;" vertex="1" parent="1">
          <mxGeometry x="830" y="480" width="70" height="40" as="geometry" />
        </mxCell>
        <mxCell id="UBYn010A4l6dqS02ffVp-29" value="area" style="ellipse;whiteSpace=wrap;html=1;" vertex="1" parent="1">
          <mxGeometry x="620" y="490" width="70" height="40" as="geometry" />
        </mxCell>
        <mxCell id="UBYn010A4l6dqS02ffVp-30" value="household_owner" style="ellipse;whiteSpace=wrap;html=1;" vertex="1" parent="1">
          <mxGeometry x="690" y="420" width="110" height="60" as="geometry" />
        </mxCell>
        <mxCell id="UBYn010A4l6dqS02ffVp-31" value="num_of_members" style="ellipse;whiteSpace=wrap;html=1;" vertex="1" parent="1">
          <mxGeometry x="550" y="415" width="110" height="55" as="geometry" />
        </mxCell>
        <mxCell id="UBYn010A4l6dqS02ffVp-34" value="" style="endArrow=none;html=1;rounded=0;entryX=0.083;entryY=1.015;entryDx=0;entryDy=0;entryPerimeter=0;exitX=0.662;exitY=-0.032;exitDx=0;exitDy=0;exitPerimeter=0;" edge="1" parent="1" source="UBYn010A4l6dqS02ffVp-27" target="UBYn010A4l6dqS02ffVp-17">
          <mxGeometry width="50" height="50" relative="1" as="geometry">
            <mxPoint x="540" y="310" as="sourcePoint" />
            <mxPoint x="590" y="260" as="targetPoint" />
          </mxGeometry>
        </mxCell>
        <mxCell id="UBYn010A4l6dqS02ffVp-35" value="" style="endArrow=none;html=1;rounded=0;entryX=0.25;entryY=1;entryDx=0;entryDy=0;exitX=0.5;exitY=0;exitDx=0;exitDy=0;" edge="1" parent="1" source="UBYn010A4l6dqS02ffVp-31" target="UBYn010A4l6dqS02ffVp-17">
          <mxGeometry width="50" height="50" relative="1" as="geometry">
            <mxPoint x="540" y="310" as="sourcePoint" />
            <mxPoint x="590" y="260" as="targetPoint" />
          </mxGeometry>
        </mxCell>
        <mxCell id="UBYn010A4l6dqS02ffVp-36" value="" style="endArrow=none;html=1;rounded=0;" edge="1" parent="1" source="UBYn010A4l6dqS02ffVp-29">
          <mxGeometry width="50" height="50" relative="1" as="geometry">
            <mxPoint x="540" y="310" as="sourcePoint" />
            <mxPoint x="700" y="250" as="targetPoint" />
          </mxGeometry>
        </mxCell>
        <mxCell id="UBYn010A4l6dqS02ffVp-37" value="" style="endArrow=none;html=1;rounded=0;entryX=0.5;entryY=1;entryDx=0;entryDy=0;exitX=0.5;exitY=0;exitDx=0;exitDy=0;" edge="1" parent="1" source="UBYn010A4l6dqS02ffVp-30" target="UBYn010A4l6dqS02ffVp-17">
          <mxGeometry width="50" height="50" relative="1" as="geometry">
            <mxPoint x="540" y="310" as="sourcePoint" />
            <mxPoint x="590" y="260" as="targetPoint" />
          </mxGeometry>
        </mxCell>
        <mxCell id="UBYn010A4l6dqS02ffVp-38" value="" style="endArrow=none;html=1;rounded=0;entryX=0.6;entryY=0.999;entryDx=0;entryDy=0;entryPerimeter=0;exitX=0;exitY=0;exitDx=0;exitDy=0;" edge="1" parent="1" source="UBYn010A4l6dqS02ffVp-28" target="UBYn010A4l6dqS02ffVp-17">
          <mxGeometry width="50" height="50" relative="1" as="geometry">
            <mxPoint x="540" y="310" as="sourcePoint" />
            <mxPoint x="590" y="260" as="targetPoint" />
          </mxGeometry>
        </mxCell>
        <mxCell id="UBYn010A4l6dqS02ffVp-39" value="" style="endArrow=none;html=1;rounded=0;entryX=0.867;entryY=1.015;entryDx=0;entryDy=0;entryPerimeter=0;exitX=0;exitY=0;exitDx=0;exitDy=0;" edge="1" parent="1" source="UBYn010A4l6dqS02ffVp-26" target="UBYn010A4l6dqS02ffVp-17">
          <mxGeometry width="50" height="50" relative="1" as="geometry">
            <mxPoint x="540" y="310" as="sourcePoint" />
            <mxPoint x="590" y="260" as="targetPoint" />
          </mxGeometry>
        </mxCell>
        <mxCell id="UBYn010A4l6dqS02ffVp-40" value="process" style="rhombus;whiteSpace=wrap;html=1;" vertex="1" parent="1">
          <mxGeometry x="70" y="170" width="80" height="50" as="geometry" />
        </mxCell>
        <mxCell id="UBYn010A4l6dqS02ffVp-41" value="Car" style="rounded=0;whiteSpace=wrap;html=1;" vertex="1" parent="1">
          <mxGeometry x="-80" y="80" width="120" height="60" as="geometry" />
        </mxCell>
        <mxCell id="UBYn010A4l6dqS02ffVp-42" value="" style="endArrow=none;html=1;rounded=0;exitX=0.25;exitY=0;exitDx=0;exitDy=0;entryX=1;entryY=0.5;entryDx=0;entryDy=0;" edge="1" parent="1" source="UBYn010A4l6dqS02ffVp-1" target="UBYn010A4l6dqS02ffVp-40">
          <mxGeometry width="50" height="50" relative="1" as="geometry">
            <mxPoint x="540" y="190" as="sourcePoint" />
            <mxPoint x="590" y="140" as="targetPoint" />
          </mxGeometry>
        </mxCell>
        <mxCell id="UBYn010A4l6dqS02ffVp-44" value="1" style="edgeLabel;html=1;align=center;verticalAlign=middle;resizable=0;points=[];" vertex="1" connectable="0" parent="UBYn010A4l6dqS02ffVp-42">
          <mxGeometry x="-0.1671" relative="1" as="geometry">
            <mxPoint as="offset" />
          </mxGeometry>
        </mxCell>
        <mxCell id="UBYn010A4l6dqS02ffVp-43" value="" style="endArrow=none;html=1;rounded=0;exitX=0;exitY=0.5;exitDx=0;exitDy=0;entryX=0.5;entryY=1;entryDx=0;entryDy=0;" edge="1" parent="1" source="UBYn010A4l6dqS02ffVp-40" target="UBYn010A4l6dqS02ffVp-41">
          <mxGeometry width="50" height="50" relative="1" as="geometry">
            <mxPoint x="540" y="190" as="sourcePoint" />
            <mxPoint x="590" y="140" as="targetPoint" />
          </mxGeometry>
        </mxCell>
        <mxCell id="UBYn010A4l6dqS02ffVp-45" value="n" style="edgeLabel;html=1;align=center;verticalAlign=middle;resizable=0;points=[];" vertex="1" connectable="0" parent="UBYn010A4l6dqS02ffVp-43">
          <mxGeometry x="0.0602" y="-1" relative="1" as="geometry">
            <mxPoint as="offset" />
          </mxGeometry>
        </mxCell>
        <mxCell id="UBYn010A4l6dqS02ffVp-46" value="" style="endArrow=none;html=1;rounded=0;exitX=0;exitY=0.5;exitDx=0;exitDy=0;entryX=1;entryY=1;entryDx=0;entryDy=0;" edge="1" parent="1" source="UBYn010A4l6dqS02ffVp-41" target="UBYn010A4l6dqS02ffVp-50">
          <mxGeometry width="50" height="50" relative="1" as="geometry">
            <mxPoint x="150" y="90" as="sourcePoint" />
            <mxPoint x="-130" y="60" as="targetPoint" />
          </mxGeometry>
        </mxCell>
        <mxCell id="UBYn010A4l6dqS02ffVp-47" value="car_comp" style="ellipse;whiteSpace=wrap;html=1;" vertex="1" parent="1">
          <mxGeometry x="-230" y="140" width="80" height="40" as="geometry" />
        </mxCell>
        <mxCell id="UBYn010A4l6dqS02ffVp-48" value="car_num" style="ellipse;whiteSpace=wrap;html=1;" vertex="1" parent="1">
          <mxGeometry x="-230" y="210" width="70" height="40" as="geometry" />
        </mxCell>
        <mxCell id="UBYn010A4l6dqS02ffVp-49" value="&lt;b&gt;&lt;u&gt;owner_id&lt;/u&gt;&lt;/b&gt;" style="ellipse;whiteSpace=wrap;html=1;" vertex="1" parent="1">
          <mxGeometry x="-230" y="80" width="70" height="40" as="geometry" />
        </mxCell>
        <mxCell id="UBYn010A4l6dqS02ffVp-50" value="&lt;b&gt;&lt;u&gt;household_id&lt;/u&gt;&lt;/b&gt;" style="ellipse;whiteSpace=wrap;html=1;" vertex="1" parent="1">
          <mxGeometry x="-240" y="20" width="90" height="40" as="geometry" />
        </mxCell>
        <mxCell id="UBYn010A4l6dqS02ffVp-53" value="car_type" style="ellipse;whiteSpace=wrap;html=1;" vertex="1" parent="1">
          <mxGeometry x="-170" y="260" width="60" height="40" as="geometry" />
        </mxCell>
        <mxCell id="UBYn010A4l6dqS02ffVp-56" value="" style="endArrow=none;html=1;rounded=0;exitX=0;exitY=0.75;exitDx=0;exitDy=0;entryX=1;entryY=1;entryDx=0;entryDy=0;" edge="1" parent="1" source="UBYn010A4l6dqS02ffVp-41" target="UBYn010A4l6dqS02ffVp-49">
          <mxGeometry width="50" height="50" relative="1" as="geometry">
            <mxPoint x="150" y="190" as="sourcePoint" />
            <mxPoint x="200" y="140" as="targetPoint" />
          </mxGeometry>
        </mxCell>
        <mxCell id="UBYn010A4l6dqS02ffVp-57" value="" style="endArrow=none;html=1;rounded=0;exitX=-0.01;exitY=0.897;exitDx=0;exitDy=0;exitPerimeter=0;entryX=1;entryY=0.5;entryDx=0;entryDy=0;" edge="1" parent="1" source="UBYn010A4l6dqS02ffVp-41" target="UBYn010A4l6dqS02ffVp-47">
          <mxGeometry width="50" height="50" relative="1" as="geometry">
            <mxPoint x="150" y="190" as="sourcePoint" />
            <mxPoint x="200" y="140" as="targetPoint" />
          </mxGeometry>
        </mxCell>
        <mxCell id="UBYn010A4l6dqS02ffVp-58" value="" style="endArrow=none;html=1;rounded=0;exitX=0.163;exitY=1.003;exitDx=0;exitDy=0;exitPerimeter=0;entryX=1;entryY=0;entryDx=0;entryDy=0;" edge="1" parent="1" source="UBYn010A4l6dqS02ffVp-41" target="UBYn010A4l6dqS02ffVp-48">
          <mxGeometry width="50" height="50" relative="1" as="geometry">
            <mxPoint x="150" y="190" as="sourcePoint" />
            <mxPoint x="200" y="140" as="targetPoint" />
          </mxGeometry>
        </mxCell>
        <mxCell id="UBYn010A4l6dqS02ffVp-59" value="" style="endArrow=none;html=1;rounded=0;entryX=0.633;entryY=-0.075;entryDx=0;entryDy=0;entryPerimeter=0;exitX=0.25;exitY=1;exitDx=0;exitDy=0;" edge="1" parent="1" source="UBYn010A4l6dqS02ffVp-41" target="UBYn010A4l6dqS02ffVp-53">
          <mxGeometry width="50" height="50" relative="1" as="geometry">
            <mxPoint x="-10" y="140" as="sourcePoint" />
            <mxPoint x="200" y="140" as="targetPoint" />
          </mxGeometry>
        </mxCell>
        <mxCell id="UBYn010A4l6dqS02ffVp-60" value="Account" style="rounded=0;whiteSpace=wrap;html=1;" vertex="1" parent="1">
          <mxGeometry x="-50" y="320" width="120" height="60" as="geometry" />
        </mxCell>
        <mxCell id="UBYn010A4l6dqS02ffVp-61" value="email" style="ellipse;whiteSpace=wrap;html=1;" vertex="1" parent="1">
          <mxGeometry x="60" y="480" width="60" height="40" as="geometry" />
        </mxCell>
        <mxCell id="UBYn010A4l6dqS02ffVp-62" value="_password" style="ellipse;whiteSpace=wrap;html=1;" vertex="1" parent="1">
          <mxGeometry x="-50" y="440" width="80" height="40" as="geometry" />
        </mxCell>
        <mxCell id="UBYn010A4l6dqS02ffVp-63" value="username" style="ellipse;whiteSpace=wrap;html=1;" vertex="1" parent="1">
          <mxGeometry x="-140" y="422.5" width="70" height="40" as="geometry" />
        </mxCell>
        <mxCell id="UBYn010A4l6dqS02ffVp-64" value="" style="endArrow=none;html=1;rounded=0;exitX=0.25;exitY=1;exitDx=0;exitDy=0;entryX=0.5;entryY=0;entryDx=0;entryDy=0;" edge="1" parent="1" source="UBYn010A4l6dqS02ffVp-60" target="UBYn010A4l6dqS02ffVp-63">
          <mxGeometry width="50" height="50" relative="1" as="geometry">
            <mxPoint x="320" y="420" as="sourcePoint" />
            <mxPoint x="370" y="370" as="targetPoint" />
          </mxGeometry>
        </mxCell>
        <mxCell id="UBYn010A4l6dqS02ffVp-65" value="" style="endArrow=none;html=1;rounded=0;exitX=0.5;exitY=1;exitDx=0;exitDy=0;entryX=0.5;entryY=0;entryDx=0;entryDy=0;" edge="1" parent="1" source="UBYn010A4l6dqS02ffVp-60" target="UBYn010A4l6dqS02ffVp-62">
          <mxGeometry width="50" height="50" relative="1" as="geometry">
            <mxPoint x="320" y="420" as="sourcePoint" />
            <mxPoint x="370" y="370" as="targetPoint" />
          </mxGeometry>
        </mxCell>
        <mxCell id="UBYn010A4l6dqS02ffVp-66" value="" style="endArrow=none;html=1;rounded=0;entryX=0;entryY=0;entryDx=0;entryDy=0;exitX=0.75;exitY=1;exitDx=0;exitDy=0;" edge="1" parent="1" source="UBYn010A4l6dqS02ffVp-60" target="UBYn010A4l6dqS02ffVp-61">
          <mxGeometry width="50" height="50" relative="1" as="geometry">
            <mxPoint x="-30" y="430" as="sourcePoint" />
            <mxPoint x="370" y="370" as="targetPoint" />
          </mxGeometry>
        </mxCell>
        <mxCell id="UBYn010A4l6dqS02ffVp-67" value="household_owner" style="rounded=0;whiteSpace=wrap;html=1;" vertex="1" parent="1">
          <mxGeometry x="260" y="-35" width="120" height="60" as="geometry" />
        </mxCell>
        <mxCell id="UBYn010A4l6dqS02ffVp-68" value="Is" style="rhombus;whiteSpace=wrap;html=1;" vertex="1" parent="1">
          <mxGeometry x="270" y="140" width="60" height="40" as="geometry" />
        </mxCell>
        <mxCell id="UBYn010A4l6dqS02ffVp-69" value="" style="endArrow=none;html=1;rounded=0;exitX=0.5;exitY=0;exitDx=0;exitDy=0;entryX=0.5;entryY=1;entryDx=0;entryDy=0;" edge="1" parent="1" source="UBYn010A4l6dqS02ffVp-1" target="UBYn010A4l6dqS02ffVp-68">
          <mxGeometry width="50" height="50" relative="1" as="geometry">
            <mxPoint x="330" y="300" as="sourcePoint" />
            <mxPoint x="380" y="250" as="targetPoint" />
          </mxGeometry>
        </mxCell>
        <mxCell id="UBYn010A4l6dqS02ffVp-70" value="1" style="edgeLabel;html=1;align=center;verticalAlign=middle;resizable=0;points=[];" vertex="1" connectable="0" parent="UBYn010A4l6dqS02ffVp-69">
          <mxGeometry x="-0.033" y="-2" relative="1" as="geometry">
            <mxPoint y="-1" as="offset" />
          </mxGeometry>
        </mxCell>
        <mxCell id="UBYn010A4l6dqS02ffVp-71" value="" style="endArrow=none;html=1;rounded=0;exitX=0.5;exitY=0;exitDx=0;exitDy=0;entryX=0.622;entryY=1.025;entryDx=0;entryDy=0;entryPerimeter=0;" edge="1" parent="1" source="UBYn010A4l6dqS02ffVp-68" target="UBYn010A4l6dqS02ffVp-67">
          <mxGeometry width="50" height="50" relative="1" as="geometry">
            <mxPoint x="330" y="300" as="sourcePoint" />
            <mxPoint x="380" y="250" as="targetPoint" />
          </mxGeometry>
        </mxCell>
        <mxCell id="UBYn010A4l6dqS02ffVp-72" value="1" style="edgeLabel;html=1;align=center;verticalAlign=middle;resizable=0;points=[];" vertex="1" connectable="0" parent="UBYn010A4l6dqS02ffVp-71">
          <mxGeometry x="0.042" y="-1" relative="1" as="geometry">
            <mxPoint as="offset" />
          </mxGeometry>
        </mxCell>
        <mxCell id="UBYn010A4l6dqS02ffVp-74" value="&lt;b&gt;&lt;u&gt;owner_id&lt;/u&gt;&lt;/b&gt;" style="ellipse;whiteSpace=wrap;html=1;" vertex="1" parent="1">
          <mxGeometry x="380" y="-140" width="70" height="40" as="geometry" />
        </mxCell>
        <mxCell id="UBYn010A4l6dqS02ffVp-75" value="&lt;b&gt;&lt;u&gt;household_id&lt;/u&gt;&lt;/b&gt;" style="ellipse;whiteSpace=wrap;html=1;" vertex="1" parent="1">
          <mxGeometry x="240" y="-145" width="90" height="50" as="geometry" />
        </mxCell>
        <mxCell id="UBYn010A4l6dqS02ffVp-76" value="" style="endArrow=none;html=1;rounded=0;exitX=0.25;exitY=0;exitDx=0;exitDy=0;entryX=0.5;entryY=1;entryDx=0;entryDy=0;" edge="1" parent="1" source="UBYn010A4l6dqS02ffVp-67" target="UBYn010A4l6dqS02ffVp-75">
          <mxGeometry width="50" height="50" relative="1" as="geometry">
            <mxPoint x="350" y="180" as="sourcePoint" />
            <mxPoint x="400" y="130" as="targetPoint" />
          </mxGeometry>
        </mxCell>
        <mxCell id="UBYn010A4l6dqS02ffVp-77" value="" style="endArrow=none;html=1;rounded=0;exitX=0.5;exitY=0;exitDx=0;exitDy=0;entryX=0.5;entryY=1;entryDx=0;entryDy=0;" edge="1" parent="1" source="UBYn010A4l6dqS02ffVp-67" target="UBYn010A4l6dqS02ffVp-74">
          <mxGeometry width="50" height="50" relative="1" as="geometry">
            <mxPoint x="350" y="180" as="sourcePoint" />
            <mxPoint x="400" y="130" as="targetPoint" />
          </mxGeometry>
        </mxCell>
        <mxCell id="UBYn010A4l6dqS02ffVp-78" value="Own" style="rhombus;whiteSpace=wrap;html=1;" vertex="1" parent="1">
          <mxGeometry x="480" y="50" width="80" height="50" as="geometry" />
        </mxCell>
        <mxCell id="UBYn010A4l6dqS02ffVp-79" value="" style="endArrow=none;html=1;rounded=0;exitX=1;exitY=0.75;exitDx=0;exitDy=0;entryX=0;entryY=0.5;entryDx=0;entryDy=0;" edge="1" parent="1" source="UBYn010A4l6dqS02ffVp-67" target="UBYn010A4l6dqS02ffVp-78">
          <mxGeometry width="50" height="50" relative="1" as="geometry">
            <mxPoint x="350" y="180" as="sourcePoint" />
            <mxPoint x="400" y="130" as="targetPoint" />
          </mxGeometry>
        </mxCell>
        <mxCell id="UBYn010A4l6dqS02ffVp-81" value="1" style="edgeLabel;html=1;align=center;verticalAlign=middle;resizable=0;points=[];" vertex="1" connectable="0" parent="UBYn010A4l6dqS02ffVp-79">
          <mxGeometry x="0.0419" y="-1" relative="1" as="geometry">
            <mxPoint y="-1" as="offset" />
          </mxGeometry>
        </mxCell>
        <mxCell id="UBYn010A4l6dqS02ffVp-80" value="" style="endArrow=none;html=1;rounded=0;entryX=1;entryY=0.5;entryDx=0;entryDy=0;exitX=0.5;exitY=0;exitDx=0;exitDy=0;" edge="1" parent="1" source="UBYn010A4l6dqS02ffVp-17" target="UBYn010A4l6dqS02ffVp-78">
          <mxGeometry width="50" height="50" relative="1" as="geometry">
            <mxPoint x="350" y="180" as="sourcePoint" />
            <mxPoint x="400" y="130" as="targetPoint" />
          </mxGeometry>
        </mxCell>
        <mxCell id="UBYn010A4l6dqS02ffVp-82" value="n" style="edgeLabel;html=1;align=center;verticalAlign=middle;resizable=0;points=[];" vertex="1" connectable="0" parent="UBYn010A4l6dqS02ffVp-80">
          <mxGeometry x="0.0652" y="-2" relative="1" as="geometry">
            <mxPoint as="offset" />
          </mxGeometry>
        </mxCell>
        <mxCell id="UBYn010A4l6dqS02ffVp-85" value="Fee_payment" style="rounded=0;whiteSpace=wrap;html=1;" vertex="1" parent="1">
          <mxGeometry x="710" y="-10" width="120" height="60" as="geometry" />
        </mxCell>
        <mxCell id="UBYn010A4l6dqS02ffVp-86" value="Invoice" style="rhombus;whiteSpace=wrap;html=1;" vertex="1" parent="1">
          <mxGeometry x="780" y="120" width="80" height="50" as="geometry" />
        </mxCell>
        <mxCell id="UBYn010A4l6dqS02ffVp-87" value="" style="endArrow=none;html=1;rounded=0;entryX=1;entryY=0.5;entryDx=0;entryDy=0;exitX=0.5;exitY=1;exitDx=0;exitDy=0;" edge="1" parent="1" source="UBYn010A4l6dqS02ffVp-86" target="UBYn010A4l6dqS02ffVp-17">
          <mxGeometry width="50" height="50" relative="1" as="geometry">
            <mxPoint x="490" y="260" as="sourcePoint" />
            <mxPoint x="540" y="210" as="targetPoint" />
          </mxGeometry>
        </mxCell>
        <mxCell id="UBYn010A4l6dqS02ffVp-88" value="n" style="edgeLabel;html=1;align=center;verticalAlign=middle;resizable=0;points=[];" vertex="1" connectable="0" parent="UBYn010A4l6dqS02ffVp-87">
          <mxGeometry x="-0.1354" y="-3" relative="1" as="geometry">
            <mxPoint y="-1" as="offset" />
          </mxGeometry>
        </mxCell>
        <mxCell id="UBYn010A4l6dqS02ffVp-89" value="" style="endArrow=none;html=1;rounded=0;entryX=0.5;entryY=0;entryDx=0;entryDy=0;exitX=0.5;exitY=1;exitDx=0;exitDy=0;" edge="1" parent="1" source="UBYn010A4l6dqS02ffVp-85" target="UBYn010A4l6dqS02ffVp-86">
          <mxGeometry width="50" height="50" relative="1" as="geometry">
            <mxPoint x="490" y="260" as="sourcePoint" />
            <mxPoint x="540" y="210" as="targetPoint" />
          </mxGeometry>
        </mxCell>
        <mxCell id="UBYn010A4l6dqS02ffVp-92" value="m" style="edgeLabel;html=1;align=center;verticalAlign=middle;resizable=0;points=[];" vertex="1" connectable="0" parent="UBYn010A4l6dqS02ffVp-89">
          <mxGeometry x="0.0587" y="2" relative="1" as="geometry">
            <mxPoint x="1" as="offset" />
          </mxGeometry>
        </mxCell>
        <mxCell id="UBYn010A4l6dqS02ffVp-93" value="&lt;b&gt;&lt;u&gt;id_owner&lt;/u&gt;&lt;/b&gt;" style="ellipse;whiteSpace=wrap;html=1;" vertex="1" parent="1">
          <mxGeometry x="620" y="-100" width="70" height="30" as="geometry" />
        </mxCell>
        <mxCell id="UBYn010A4l6dqS02ffVp-94" value="price" style="ellipse;whiteSpace=wrap;html=1;" vertex="1" parent="1">
          <mxGeometry x="895" y="-57.5" width="50" height="30" as="geometry" />
        </mxCell>
        <mxCell id="UBYn010A4l6dqS02ffVp-95" value="status" style="ellipse;whiteSpace=wrap;html=1;" vertex="1" parent="1">
          <mxGeometry x="780" y="-125" width="50" height="30" as="geometry" />
        </mxCell>
        <mxCell id="UBYn010A4l6dqS02ffVp-96" value="pay_date" style="ellipse;whiteSpace=wrap;html=1;" vertex="1" parent="1">
          <mxGeometry x="850" y="-110" width="60" height="40" as="geometry" />
        </mxCell>
        <mxCell id="UBYn010A4l6dqS02ffVp-97" value="&lt;b&gt;&lt;u&gt;fee_id&lt;/u&gt;&lt;/b&gt;" style="ellipse;whiteSpace=wrap;html=1;" vertex="1" parent="1">
          <mxGeometry x="600" y="-62.5" width="60" height="35" as="geometry" />
        </mxCell>
        <mxCell id="UBYn010A4l6dqS02ffVp-98" value="name" style="ellipse;whiteSpace=wrap;html=1;" vertex="1" parent="1">
          <mxGeometry x="710" y="-120" width="50" height="30" as="geometry" />
        </mxCell>
        <mxCell id="UBYn010A4l6dqS02ffVp-99" value="Paid" style="rhombus;whiteSpace=wrap;html=1;" vertex="1" parent="1">
          <mxGeometry x="490" y="-10" width="70" height="30" as="geometry" />
        </mxCell>
        <mxCell id="UBYn010A4l6dqS02ffVp-100" value="" style="endArrow=none;html=1;rounded=0;exitX=1;exitY=0.5;exitDx=0;exitDy=0;entryX=0;entryY=0.5;entryDx=0;entryDy=0;" edge="1" parent="1" source="UBYn010A4l6dqS02ffVp-67" target="UBYn010A4l6dqS02ffVp-99">
          <mxGeometry width="50" height="50" relative="1" as="geometry">
            <mxPoint x="610" y="40" as="sourcePoint" />
            <mxPoint x="660" y="-10" as="targetPoint" />
          </mxGeometry>
        </mxCell>
        <mxCell id="UBYn010A4l6dqS02ffVp-102" value="n" style="edgeLabel;html=1;align=center;verticalAlign=middle;resizable=0;points=[];" vertex="1" connectable="0" parent="UBYn010A4l6dqS02ffVp-100">
          <mxGeometry x="-0.0774" y="1" relative="1" as="geometry">
            <mxPoint as="offset" />
          </mxGeometry>
        </mxCell>
        <mxCell id="UBYn010A4l6dqS02ffVp-101" value="" style="endArrow=none;html=1;rounded=0;exitX=1;exitY=0.5;exitDx=0;exitDy=0;entryX=0;entryY=0.5;entryDx=0;entryDy=0;" edge="1" parent="1" source="UBYn010A4l6dqS02ffVp-99" target="UBYn010A4l6dqS02ffVp-85">
          <mxGeometry width="50" height="50" relative="1" as="geometry">
            <mxPoint x="610" y="40" as="sourcePoint" />
            <mxPoint x="660" y="-10" as="targetPoint" />
          </mxGeometry>
        </mxCell>
        <mxCell id="UBYn010A4l6dqS02ffVp-103" value="m" style="edgeLabel;html=1;align=center;verticalAlign=middle;resizable=0;points=[];" vertex="1" connectable="0" parent="UBYn010A4l6dqS02ffVp-101">
          <mxGeometry x="-0.059" relative="1" as="geometry">
            <mxPoint as="offset" />
          </mxGeometry>
        </mxCell>
        <mxCell id="UBYn010A4l6dqS02ffVp-104" value="" style="endArrow=none;html=1;rounded=0;exitX=0.143;exitY=-0.017;exitDx=0;exitDy=0;exitPerimeter=0;" edge="1" parent="1" source="UBYn010A4l6dqS02ffVp-85">
          <mxGeometry width="50" height="50" relative="1" as="geometry">
            <mxPoint x="610" y="40" as="sourcePoint" />
            <mxPoint x="660" y="-45" as="targetPoint" />
          </mxGeometry>
        </mxCell>
        <mxCell id="UBYn010A4l6dqS02ffVp-105" value="" style="endArrow=none;html=1;rounded=0;entryX=1;entryY=0.5;entryDx=0;entryDy=0;exitX=0.25;exitY=0;exitDx=0;exitDy=0;" edge="1" parent="1" source="UBYn010A4l6dqS02ffVp-85" target="UBYn010A4l6dqS02ffVp-93">
          <mxGeometry width="50" height="50" relative="1" as="geometry">
            <mxPoint x="610" y="40" as="sourcePoint" />
            <mxPoint x="660" y="-10" as="targetPoint" />
          </mxGeometry>
        </mxCell>
        <mxCell id="UBYn010A4l6dqS02ffVp-106" value="" style="endArrow=none;html=1;rounded=0;entryX=0.5;entryY=1;entryDx=0;entryDy=0;exitX=0.33;exitY=-0.017;exitDx=0;exitDy=0;exitPerimeter=0;" edge="1" parent="1" source="UBYn010A4l6dqS02ffVp-85" target="UBYn010A4l6dqS02ffVp-98">
          <mxGeometry width="50" height="50" relative="1" as="geometry">
            <mxPoint x="757" y="-13" as="sourcePoint" />
            <mxPoint x="660" y="-10" as="targetPoint" />
          </mxGeometry>
        </mxCell>
        <mxCell id="UBYn010A4l6dqS02ffVp-108" value="" style="endArrow=none;html=1;rounded=0;exitX=0.5;exitY=0;exitDx=0;exitDy=0;entryX=0.5;entryY=1;entryDx=0;entryDy=0;" edge="1" parent="1" source="UBYn010A4l6dqS02ffVp-85" target="UBYn010A4l6dqS02ffVp-95">
          <mxGeometry width="50" height="50" relative="1" as="geometry">
            <mxPoint x="610" y="40" as="sourcePoint" />
            <mxPoint x="660" y="-10" as="targetPoint" />
          </mxGeometry>
        </mxCell>
        <mxCell id="UBYn010A4l6dqS02ffVp-109" value="" style="endArrow=none;html=1;rounded=0;exitX=0.75;exitY=0;exitDx=0;exitDy=0;entryX=0.047;entryY=0.775;entryDx=0;entryDy=0;entryPerimeter=0;" edge="1" parent="1" source="UBYn010A4l6dqS02ffVp-85" target="UBYn010A4l6dqS02ffVp-96">
          <mxGeometry width="50" height="50" relative="1" as="geometry">
            <mxPoint x="610" y="40" as="sourcePoint" />
            <mxPoint x="660" y="-10" as="targetPoint" />
          </mxGeometry>
        </mxCell>
        <mxCell id="UBYn010A4l6dqS02ffVp-110" value="" style="endArrow=none;html=1;rounded=0;entryX=0.877;entryY=-0.003;entryDx=0;entryDy=0;entryPerimeter=0;exitX=0;exitY=0.5;exitDx=0;exitDy=0;" edge="1" parent="1" source="UBYn010A4l6dqS02ffVp-94" target="UBYn010A4l6dqS02ffVp-85">
          <mxGeometry width="50" height="50" relative="1" as="geometry">
            <mxPoint x="610" y="40" as="sourcePoint" />
            <mxPoint x="660" y="-10" as="targetPoint" />
          </mxGeometry>
        </mxCell>
        <mxCell id="UBYn010A4l6dqS02ffVp-111" value="Fee" style="rounded=0;whiteSpace=wrap;html=1;" vertex="1" parent="1">
          <mxGeometry x="990" y="120" width="100" height="50" as="geometry" />
        </mxCell>
        <mxCell id="UBYn010A4l6dqS02ffVp-112" value="&lt;b&gt;&lt;u&gt;fee_id&lt;/u&gt;&lt;/b&gt;" style="ellipse;whiteSpace=wrap;html=1;" vertex="1" parent="1">
          <mxGeometry x="1005" y="-15" width="70" height="40" as="geometry" />
        </mxCell>
        <mxCell id="UBYn010A4l6dqS02ffVp-113" value="fee_date" style="ellipse;whiteSpace=wrap;html=1;" vertex="1" parent="1">
          <mxGeometry x="1090" y="220" width="70" height="40" as="geometry" />
        </mxCell>
        <mxCell id="UBYn010A4l6dqS02ffVp-114" value="fee_type" style="ellipse;whiteSpace=wrap;html=1;" vertex="1" parent="1">
          <mxGeometry x="1165" y="170" width="70" height="30" as="geometry" />
        </mxCell>
        <mxCell id="UBYn010A4l6dqS02ffVp-115" value="amount" style="ellipse;whiteSpace=wrap;html=1;" vertex="1" parent="1">
          <mxGeometry x="1170" y="110" width="60" height="40" as="geometry" />
        </mxCell>
        <mxCell id="UBYn010A4l6dqS02ffVp-116" value="fee_name" style="ellipse;whiteSpace=wrap;html=1;" vertex="1" parent="1">
          <mxGeometry x="1110" y="40" width="70" height="40" as="geometry" />
        </mxCell>
        <mxCell id="UBYn010A4l6dqS02ffVp-117" value="Include" style="rhombus;whiteSpace=wrap;html=1;" vertex="1" parent="1">
          <mxGeometry x="865" y="60" width="80" height="50" as="geometry" />
        </mxCell>
        <mxCell id="UBYn010A4l6dqS02ffVp-118" value="" style="endArrow=none;html=1;rounded=0;entryX=0;entryY=0.5;entryDx=0;entryDy=0;exitX=1;exitY=0.5;exitDx=0;exitDy=0;" edge="1" parent="1" source="UBYn010A4l6dqS02ffVp-117" target="UBYn010A4l6dqS02ffVp-111">
          <mxGeometry width="50" height="50" relative="1" as="geometry">
            <mxPoint x="930" y="180" as="sourcePoint" />
            <mxPoint x="980" y="130" as="targetPoint" />
          </mxGeometry>
        </mxCell>
        <mxCell id="UBYn010A4l6dqS02ffVp-119" value="1" style="edgeLabel;html=1;align=center;verticalAlign=middle;resizable=0;points=[];" vertex="1" connectable="0" parent="UBYn010A4l6dqS02ffVp-118">
          <mxGeometry x="0.0309" y="-3" relative="1" as="geometry">
            <mxPoint as="offset" />
          </mxGeometry>
        </mxCell>
        <mxCell id="UBYn010A4l6dqS02ffVp-120" value="" style="endArrow=none;html=1;rounded=0;entryX=0;entryY=0.5;entryDx=0;entryDy=0;exitX=1;exitY=0.75;exitDx=0;exitDy=0;" edge="1" parent="1" source="UBYn010A4l6dqS02ffVp-85" target="UBYn010A4l6dqS02ffVp-117">
          <mxGeometry width="50" height="50" relative="1" as="geometry">
            <mxPoint x="930" y="180" as="sourcePoint" />
            <mxPoint x="980" y="130" as="targetPoint" />
          </mxGeometry>
        </mxCell>
        <mxCell id="UBYn010A4l6dqS02ffVp-121" value="n" style="edgeLabel;html=1;align=center;verticalAlign=middle;resizable=0;points=[];" vertex="1" connectable="0" parent="UBYn010A4l6dqS02ffVp-120">
          <mxGeometry x="-0.3521" y="-3" relative="1" as="geometry">
            <mxPoint as="offset" />
          </mxGeometry>
        </mxCell>
        <mxCell id="UBYn010A4l6dqS02ffVp-127" value="" style="endArrow=none;html=1;rounded=0;entryX=0.5;entryY=1;entryDx=0;entryDy=0;exitX=0.5;exitY=0;exitDx=0;exitDy=0;" edge="1" parent="1" source="UBYn010A4l6dqS02ffVp-111" target="UBYn010A4l6dqS02ffVp-112">
          <mxGeometry width="50" height="50" relative="1" as="geometry">
            <mxPoint x="930" y="60" as="sourcePoint" />
            <mxPoint x="980" y="10" as="targetPoint" />
          </mxGeometry>
        </mxCell>
        <mxCell id="UBYn010A4l6dqS02ffVp-128" value="" style="endArrow=none;html=1;rounded=0;entryX=0;entryY=1;entryDx=0;entryDy=0;exitX=0.666;exitY=0.006;exitDx=0;exitDy=0;exitPerimeter=0;" edge="1" parent="1" source="UBYn010A4l6dqS02ffVp-111" target="UBYn010A4l6dqS02ffVp-116">
          <mxGeometry width="50" height="50" relative="1" as="geometry">
            <mxPoint x="930" y="60" as="sourcePoint" />
            <mxPoint x="980" y="10" as="targetPoint" />
          </mxGeometry>
        </mxCell>
        <mxCell id="UBYn010A4l6dqS02ffVp-129" value="" style="endArrow=none;html=1;rounded=0;entryX=0;entryY=0.5;entryDx=0;entryDy=0;exitX=1;exitY=0.5;exitDx=0;exitDy=0;" edge="1" parent="1" source="UBYn010A4l6dqS02ffVp-111" target="UBYn010A4l6dqS02ffVp-115">
          <mxGeometry width="50" height="50" relative="1" as="geometry">
            <mxPoint x="930" y="60" as="sourcePoint" />
            <mxPoint x="980" y="10" as="targetPoint" />
          </mxGeometry>
        </mxCell>
        <mxCell id="UBYn010A4l6dqS02ffVp-130" value="" style="endArrow=none;html=1;rounded=0;entryX=0;entryY=0.5;entryDx=0;entryDy=0;exitX=1;exitY=0.75;exitDx=0;exitDy=0;" edge="1" parent="1" source="UBYn010A4l6dqS02ffVp-111" target="UBYn010A4l6dqS02ffVp-114">
          <mxGeometry width="50" height="50" relative="1" as="geometry">
            <mxPoint x="930" y="60" as="sourcePoint" />
            <mxPoint x="980" y="10" as="targetPoint" />
          </mxGeometry>
        </mxCell>
        <mxCell id="UBYn010A4l6dqS02ffVp-131" value="" style="endArrow=none;html=1;rounded=0;entryX=0;entryY=0;entryDx=0;entryDy=0;exitX=0.61;exitY=0.985;exitDx=0;exitDy=0;exitPerimeter=0;" edge="1" parent="1" source="UBYn010A4l6dqS02ffVp-111" target="UBYn010A4l6dqS02ffVp-113">
          <mxGeometry width="50" height="50" relative="1" as="geometry">
            <mxPoint x="930" y="60" as="sourcePoint" />
            <mxPoint x="980" y="10" as="targetPoint" />
          </mxGeometry>
        </mxCell>
        <mxCell id="UBYn010A4l6dqS02ffVp-132" value="role_in_household" style="rounded=0;whiteSpace=wrap;html=1;" vertex="1" parent="1">
          <mxGeometry y="-27.5" width="120" height="60" as="geometry" />
        </mxCell>
        <mxCell id="UBYn010A4l6dqS02ffVp-133" value="Relate" style="rhombus;whiteSpace=wrap;html=1;" vertex="1" parent="1">
          <mxGeometry x="120" y="100" width="80" height="50" as="geometry" />
        </mxCell>
        <mxCell id="UBYn010A4l6dqS02ffVp-134" value="" style="endArrow=none;html=1;rounded=0;exitX=0.363;exitY=0.013;exitDx=0;exitDy=0;exitPerimeter=0;entryX=0.5;entryY=1;entryDx=0;entryDy=0;" edge="1" parent="1" source="UBYn010A4l6dqS02ffVp-1" target="UBYn010A4l6dqS02ffVp-133">
          <mxGeometry width="50" height="50" relative="1" as="geometry">
            <mxPoint x="510" y="220" as="sourcePoint" />
            <mxPoint x="560" y="170" as="targetPoint" />
          </mxGeometry>
        </mxCell>
        <mxCell id="UBYn010A4l6dqS02ffVp-135" value="1" style="edgeLabel;html=1;align=center;verticalAlign=middle;resizable=0;points=[];" vertex="1" connectable="0" parent="UBYn010A4l6dqS02ffVp-134">
          <mxGeometry x="0.1113" relative="1" as="geometry">
            <mxPoint as="offset" />
          </mxGeometry>
        </mxCell>
        <mxCell id="UBYn010A4l6dqS02ffVp-136" value="" style="endArrow=none;html=1;rounded=0;exitX=0.5;exitY=0;exitDx=0;exitDy=0;entryX=0.5;entryY=1;entryDx=0;entryDy=0;" edge="1" parent="1" source="UBYn010A4l6dqS02ffVp-133" target="UBYn010A4l6dqS02ffVp-132">
          <mxGeometry width="50" height="50" relative="1" as="geometry">
            <mxPoint x="510" y="220" as="sourcePoint" />
            <mxPoint x="560" y="170" as="targetPoint" />
          </mxGeometry>
        </mxCell>
        <mxCell id="UBYn010A4l6dqS02ffVp-137" value="1" style="edgeLabel;html=1;align=center;verticalAlign=middle;resizable=0;points=[];" vertex="1" connectable="0" parent="UBYn010A4l6dqS02ffVp-136">
          <mxGeometry x="-0.0009" y="-4" relative="1" as="geometry">
            <mxPoint as="offset" />
          </mxGeometry>
        </mxCell>
        <mxCell id="UBYn010A4l6dqS02ffVp-138" value="&lt;b&gt;&lt;u&gt;household_id&lt;/u&gt;&lt;/b&gt;" style="ellipse;whiteSpace=wrap;html=1;" vertex="1" parent="1">
          <mxGeometry x="-140" y="-57.5" width="90" height="40" as="geometry" />
        </mxCell>
        <mxCell id="UBYn010A4l6dqS02ffVp-139" value="&lt;b&gt;&lt;u&gt;member_id&lt;/u&gt;&lt;/b&gt;" style="ellipse;whiteSpace=wrap;html=1;" vertex="1" parent="1">
          <mxGeometry x="-30" y="-95" width="70" height="40" as="geometry" />
        </mxCell>
        <mxCell id="UBYn010A4l6dqS02ffVp-140" value="_role" style="ellipse;whiteSpace=wrap;html=1;" vertex="1" parent="1">
          <mxGeometry x="70" y="-87.5" width="50" height="25" as="geometry" />
        </mxCell>
        <mxCell id="UBYn010A4l6dqS02ffVp-141" value="" style="endArrow=none;html=1;rounded=0;exitX=0;exitY=0.5;exitDx=0;exitDy=0;entryX=1;entryY=1;entryDx=0;entryDy=0;" edge="1" parent="1" source="UBYn010A4l6dqS02ffVp-132" target="UBYn010A4l6dqS02ffVp-138">
          <mxGeometry width="50" height="50" relative="1" as="geometry">
            <mxPoint x="350" y="100" as="sourcePoint" />
            <mxPoint x="400" y="50" as="targetPoint" />
          </mxGeometry>
        </mxCell>
        <mxCell id="UBYn010A4l6dqS02ffVp-142" value="" style="endArrow=none;html=1;rounded=0;exitX=0.25;exitY=0;exitDx=0;exitDy=0;entryX=0.639;entryY=0.982;entryDx=0;entryDy=0;entryPerimeter=0;" edge="1" parent="1" source="UBYn010A4l6dqS02ffVp-132" target="UBYn010A4l6dqS02ffVp-139">
          <mxGeometry width="50" height="50" relative="1" as="geometry">
            <mxPoint x="350" y="100" as="sourcePoint" />
            <mxPoint x="400" y="50" as="targetPoint" />
          </mxGeometry>
        </mxCell>
        <mxCell id="UBYn010A4l6dqS02ffVp-143" value="" style="endArrow=none;html=1;rounded=0;exitX=0.75;exitY=0;exitDx=0;exitDy=0;entryX=0.5;entryY=1;entryDx=0;entryDy=0;" edge="1" parent="1" source="UBYn010A4l6dqS02ffVp-132" target="UBYn010A4l6dqS02ffVp-140">
          <mxGeometry width="50" height="50" relative="1" as="geometry">
            <mxPoint x="350" y="100" as="sourcePoint" />
            <mxPoint x="400" y="50" as="targetPoint" />
          </mxGeometry>
        </mxCell>
        <mxCell id="UBYn010A4l6dqS02ffVp-144" value="Pay_date" style="ellipse;whiteSpace=wrap;html=1;" vertex="1" parent="1">
          <mxGeometry x="460" y="-87.5" width="60" height="32.5" as="geometry" />
        </mxCell>
        <mxCell id="UBYn010A4l6dqS02ffVp-145" value="" style="endArrow=none;html=1;rounded=0;entryX=0.5;entryY=0;entryDx=0;entryDy=0;exitX=0.5;exitY=1;exitDx=0;exitDy=0;" edge="1" parent="1" source="UBYn010A4l6dqS02ffVp-144" target="UBYn010A4l6dqS02ffVp-99">
          <mxGeometry width="50" height="50" relative="1" as="geometry">
            <mxPoint x="520" y="100" as="sourcePoint" />
            <mxPoint x="570" y="50" as="targetPoint" />
          </mxGeometry>
        </mxCell>
        <mxCell id="UBYn010A4l6dqS02ffVp-146" value="Status" style="ellipse;whiteSpace=wrap;html=1;" vertex="1" parent="1">
          <mxGeometry x="430" y="160" width="70" height="40" as="geometry" />
        </mxCell>
        <mxCell id="UBYn010A4l6dqS02ffVp-147" value="" style="endArrow=none;html=1;rounded=0;entryX=0.5;entryY=0;entryDx=0;entryDy=0;exitX=1;exitY=1;exitDx=0;exitDy=0;" edge="1" parent="1" source="UBYn010A4l6dqS02ffVp-146" target="UBYn010A4l6dqS02ffVp-18">
          <mxGeometry width="50" height="50" relative="1" as="geometry">
            <mxPoint x="470" y="260" as="sourcePoint" />
            <mxPoint x="520" y="210" as="targetPoint" />
          </mxGeometry>
        </mxCell>
      </root>
    </mxGraphModel>
  </diagram>
  <diagram id="t_0QybrX8jnEEZS8WEf6" name="Giao diện người dùng">
    <mxGraphModel dx="1050" dy="557" grid="1" gridSize="10" guides="1" tooltips="1" connect="1" arrows="1" fold="1" page="1" pageScale="1" pageWidth="827" pageHeight="1169" math="0" shadow="0">
      <root>
        <mxCell id="0" />
        <mxCell id="1" parent="0" />
        <mxCell id="MeLdfPTeZYPb4x7IIdyP-1" value="Màn hình chính" style="rounded=0;whiteSpace=wrap;html=1;" vertex="1" parent="1">
          <mxGeometry x="350" y="260" width="120" height="60" as="geometry" />
        </mxCell>
      </root>
    </mxGraphModel>
  </diagram>
</mxfile>
